<svg width="15" height="17" viewBox="0 0 15 17" fill="none" xmlns="http://www.w3.org/2000/svg">
<g id="Group 71">
<g id="Group 70">
<path id="Vector" d="M13.7724 6.85012C13.7724 11.7386 7.27582 15.9287 7.27582 15.9287C7.27582 15.9287 0.779205 11.7386 0.779205 6.85012C0.779205 5.18318 1.46367 3.58453 2.68202 2.40583C3.90037 1.22713 5.55281 0.564941 7.27582 0.564941C8.99883 0.564941 10.6513 1.22713 11.8696 2.40583C13.088 3.58453 13.7724 5.18318 13.7724 6.85012Z" stroke="white" stroke-linecap="round" stroke-linejoin="round"/>
<path id="Vector_2" d="M7.27589 8.94451C8.47188 8.94451 9.44143 8.00652 9.44143 6.84945C9.44143 5.69238 8.47188 4.75439 7.27589 4.75439C6.0799 4.75439 5.11035 5.69238 5.11035 6.84945C5.11035 8.00652 6.0799 8.94451 7.27589 8.94451Z" stroke="white" stroke-linecap="round" stroke-linejoin="round"/>
</g>
</g>
</svg>
