<svg width="284" height="74" viewBox="0 0 284 74" fill="none" xmlns="http://www.w3.org/2000/svg">
<path d="M22.0202 6.0951C21.7296 6.0951 21.4492 6.05079 21.1852 5.96863V9.94861H22.8552V5.96863C22.5912 6.0509 22.3108 6.0951 22.0202 6.0951Z" fill="#135693"/>
<path d="M22.0201 6.20654C23.6366 6.20654 24.947 4.89616 24.947 3.27972C24.947 1.66329 23.6366 0.352905 22.0201 0.352905C20.4037 0.352905 19.0933 1.66329 19.0933 3.27972C19.0933 4.89616 20.4037 6.20654 22.0201 6.20654Z" fill="#6BC1DD"/>
<g opacity="0.15">
<path opacity="0.15" d="M21.5569 3.27972C21.5569 2.10354 22.251 1.0899 23.252 0.624657C22.8774 0.450651 22.4603 0.352905 22.0201 0.352905C20.4037 0.352905 19.0933 1.66335 19.0933 3.27972C19.0933 4.89609 20.4037 6.20642 22.0201 6.20642C22.4603 6.20642 22.8774 6.10868 23.252 5.93467C22.251 5.46954 21.5569 4.4559 21.5569 3.27972Z" fill="#440075"/>
</g>
<path d="M40.676 14.5166H38.9501V30.4385H40.676C41.6222 30.4385 42.3964 29.6645 42.3964 28.7183V16.2368C42.3964 15.2908 41.6222 14.5166 40.676 14.5166Z" fill="#9EA7AF"/>
<path d="M5.09045 14.5171H3.25064C2.30446 14.5171 1.5304 15.2913 1.5304 16.2373V28.7187C1.5304 29.6648 2.30446 30.4389 3.25064 30.4389H5.09033L5.09045 14.5171Z" fill="#9EA7AF"/>
<path d="M6.26349 51.2694H3.89933C3.0922 51.2694 2.34241 51.0242 1.72031 50.6041V56.2062C1.72031 56.8369 2.23642 57.3531 2.86721 57.3531H6.26349V51.2694Z" fill="#C5CCD3"/>
<path d="M40.1411 51.2692H37.777V57.3529H41.1733C41.8041 57.3529 42.3202 56.8368 42.3202 56.206V50.6041C41.698 51.0239 40.9482 51.2692 40.1411 51.2692Z" fill="#C5CCD3"/>
<path opacity="0.15" d="M4.12878 56.2061V51.2693H3.89933C3.0922 51.2693 2.34241 51.024 1.72031 50.604V56.206C1.72031 56.8368 2.23642 57.3529 2.86721 57.3529H5.27568C4.6449 57.353 4.12878 56.8369 4.12878 56.2061Z" fill="#440075"/>
<path d="M6.26354 42.502H3.89938C1.74585 42.502 0 44.2478 0 46.4013V47.5482C0 49.7018 1.74596 51.4475 3.89938 51.4475H6.26343L6.26354 42.502Z" fill="#E6E9ED"/>
<path d="M40.141 42.5006H37.7769V51.4463H40.141C42.2946 51.4463 44.0403 49.7004 44.0403 47.547V46.4001C44.0403 44.2463 42.2945 42.5006 40.141 42.5006Z" fill="#E6E9ED"/>
<g opacity="0.15">
<path opacity="0.15" d="M2.75259 47.547V46.4001C2.75259 44.2465 4.49843 42.5007 6.65196 42.5007H3.89938C1.74585 42.5007 0 44.2466 0 46.4001V47.547C0 49.7005 1.74596 51.4463 3.89938 51.4463H6.65196C4.49832 51.4463 2.75259 49.7005 2.75259 47.547Z" fill="#440075"/>
</g>
<path d="M25.8275 34.8702H18.2138V37.7153H25.8275V34.8702Z" fill="#9EA7AF"/>
<path opacity="0.15" d="M20.9882 34.8702H18.2138V37.7153H20.9882V34.8702Z" fill="#440075"/>
<path d="M30.9764 40.4309V38.5801C30.9764 38.0362 30.5313 37.5911 29.9873 37.5911H13.7195C13.1754 37.5911 12.7303 38.0362 12.7303 38.5801V40.4309H30.9764Z" fill="#C5CCD3"/>
<path opacity="0.15" d="M16.1605 40.4309V38.5801C16.1605 38.0362 16.6056 37.5911 17.1497 37.5911H13.7195C13.1754 37.5911 12.7303 38.0362 12.7303 38.5801V40.4309H16.1605Z" fill="#440075"/>
<path d="M36.1677 40.2358H7.87254C6.92637 40.2358 6.15219 41.01 6.15219 41.9562V57.3531H37.888V41.9562C37.888 41.01 37.114 40.2358 36.1677 40.2358Z" fill="#9EA7AF"/>
<g opacity="0.15">
<path opacity="0.15" d="M11.1575 40.2358H7.87254C6.92637 40.2358 6.15219 41.01 6.15219 41.9562V57.3531H9.43715V41.9562C9.43715 41.01 10.2113 40.2358 11.1575 40.2358Z" fill="#440075"/>
</g>
<path d="M39.0613 33.2822C39.0613 34.2284 38.2872 35.0024 37.3411 35.0024H6.69937C5.7533 35.0024 4.97913 34.2284 4.97913 33.2822V11.5575C4.97913 10.6113 5.7533 9.83728 6.69937 9.83728H37.3411C38.2872 9.83728 39.0613 10.6113 39.0613 11.5575V33.2822Z" fill="#C5CCD3"/>
<g opacity="0.15">
<path opacity="0.15" d="M8.25763 33.2822V11.5575C8.25763 10.6113 9.0318 9.83728 9.97798 9.83728H6.69937C5.7533 9.83728 4.97913 10.6113 4.97913 11.5575V33.2823C4.97913 34.2285 5.7533 35.0025 6.69937 35.0025H9.97798C9.0318 35.0024 8.25763 34.2284 8.25763 33.2822Z" fill="#440075"/>
</g>
<path d="M34.9903 22.4523C34.9903 25.7341 32.3299 28.3941 29.0482 28.3941H14.9921C11.7102 28.3941 9.04993 25.734 9.04993 22.4523C9.04993 19.1706 11.7102 16.5105 14.9921 16.5105H29.0482C32.3299 16.5105 34.9903 19.1706 34.9903 22.4523Z" fill="#135693"/>
<g opacity="0.15">
<path opacity="0.15" d="M12.3863 22.4523C12.3863 19.1706 15.0466 16.5105 18.3285 16.5105H14.9921C11.7102 16.5105 9.04993 19.1707 9.04993 22.4523C9.04993 25.7341 11.7102 28.3941 14.9921 28.3941H18.3285C15.0466 28.3941 12.3863 25.734 12.3863 22.4523Z" fill="#440075"/>
</g>
<path d="M14.3986 24.7728C15.6747 24.7728 16.7091 23.7343 16.7091 22.4532C16.7091 21.1721 15.6747 20.1335 14.3986 20.1335C13.1226 20.1335 12.0881 21.1721 12.0881 22.4532C12.0881 23.7343 13.1226 24.7728 14.3986 24.7728Z" fill="#6BC1DD"/>
<path d="M29.6861 24.7724C30.9622 24.7724 31.9966 23.7339 31.9966 22.4528C31.9966 21.1717 30.9622 20.1332 29.6861 20.1332C28.4101 20.1332 27.3756 21.1717 27.3756 22.4528C27.3756 23.7339 28.4101 24.7724 29.6861 24.7724Z" fill="#6BC1DD"/>
<path d="M32.2703 57.3529V47.3545C32.2703 46.7238 31.7542 46.2076 31.1234 46.2076H12.9168C12.286 46.2076 11.7699 46.7238 11.7699 47.3545V57.3529H32.2703Z" fill="#135693"/>
<path d="M24.0845 57.3529V54.1282C24.0845 53.9389 23.9296 53.7841 23.7405 53.7841H20.2998C20.1106 53.7841 19.9557 53.9389 19.9557 54.1282V57.3529H24.0845Z" fill="#FFC502"/>
<path d="M17.2034 49.7972H14.5656C14.1043 49.7972 13.7306 49.4235 13.7306 48.9623C13.7306 48.501 14.1043 48.1273 14.5656 48.1273H17.2034C17.6646 48.1273 18.0384 48.501 18.0384 48.9623C18.0384 49.4234 17.6646 49.7972 17.2034 49.7972Z" fill="#C5CCD3"/>
<path d="M16.0563 51.8354H14.5653C14.1041 51.8354 13.7303 51.4617 13.7303 51.0005C13.7303 50.5393 14.1041 50.1655 14.5653 50.1655H16.0563C16.5176 50.1655 16.8913 50.5393 16.8913 51.0005C16.8913 51.4617 16.5174 51.8354 16.0563 51.8354Z" fill="#C5CCD3"/>
<path d="M17.2031 53.8743H14.5653C14.1041 53.8743 13.7303 53.5004 13.7303 53.0393C13.7303 52.5781 14.1041 52.2043 14.5653 52.2043H17.2031C17.6643 52.2043 18.0381 52.5781 18.0381 53.0393C18.0381 53.5005 17.6643 53.8743 17.2031 53.8743Z" fill="#C5CCD3"/>
<path d="M15.7122 55.9124H14.5653C14.1041 55.9124 13.7303 55.5386 13.7303 55.0774C13.7303 54.6163 14.1041 54.2424 14.5653 54.2424H15.7122C16.1734 54.2424 16.5472 54.6163 16.5472 55.0774C16.5472 55.5386 16.1733 55.9124 15.7122 55.9124Z" fill="#C5CCD3"/>
<path d="M29.0962 55.0738H27.0603C26.5772 55.0738 26.1858 54.6822 26.1858 54.1991C26.1858 53.7159 26.5773 53.3245 27.0603 53.3245H29.0962C29.5793 53.3245 29.9709 53.716 29.9709 54.1991C29.9709 54.6823 29.5793 55.0738 29.0962 55.0738Z" fill="#E6E9ED"/>
<path d="M28.0786 52.0426C29.0931 52.0426 29.9155 51.2202 29.9155 50.2057C29.9155 49.1912 29.0931 48.3688 28.0786 48.3688C27.0641 48.3688 26.2417 49.1912 26.2417 50.2057C26.2417 51.2202 27.0641 52.0426 28.0786 52.0426Z" fill="#5DC647"/>
<path d="M24.1354 51.1661C24.1354 51.3601 23.9768 51.5186 23.783 51.5186H20.2574C20.0636 51.5186 19.905 51.3601 19.905 51.1661V49.2442C19.905 49.0502 20.0636 48.8916 20.2574 48.8916H23.783C23.9768 48.8916 24.1354 49.0502 24.1354 49.2442V51.1661Z" fill="#6BC1DD"/>
<path d="M71.1276 48.1765L69.5534 43.7071H63.3997L61.8254 48.1765H59.0403L65.0289 32.016H67.9572L73.9348 48.1765H71.1276ZM68.8709 41.4393L67.3407 37.0359C67.282 36.8451 67.1976 36.5772 67.0875 36.2323C66.9774 35.88 66.8673 35.5241 66.7573 35.1644C66.6472 34.7975 66.5554 34.4893 66.482 34.2397C66.4087 34.5406 66.3169 34.8782 66.2068 35.2525C66.1041 35.6195 66.0013 35.9644 65.8986 36.2873C65.8032 36.6102 65.7298 36.8598 65.6784 37.0359L64.1372 41.4393H68.8709ZM81.971 35.7589C82.1765 35.7589 82.4004 35.7699 82.6426 35.7919C82.8847 35.8139 83.0939 35.8433 83.27 35.88L83.0279 38.3019C82.8737 38.2578 82.6829 38.2248 82.4554 38.2028C82.2352 38.1808 82.0371 38.1698 81.861 38.1698C81.3986 38.1698 80.9583 38.2468 80.5399 38.4009C80.1216 38.5477 79.751 38.7752 79.4281 39.0835C79.1052 39.3844 78.852 39.7623 78.6685 40.2174C78.485 40.6724 78.3933 41.2008 78.3933 41.8026V48.1765H75.7953V35.9901H77.8208L78.1731 38.1367H78.2942C78.5364 37.7037 78.8373 37.3074 79.1969 36.9478C79.5565 36.5882 79.9675 36.302 80.4298 36.0892C80.8995 35.869 81.4133 35.7589 81.971 35.7589ZM90.0623 46.3051C90.3999 46.3051 90.7338 46.2757 91.0641 46.217C91.3943 46.1509 91.6952 46.0739 91.9668 45.9858V47.9453C91.6806 48.0701 91.3099 48.1765 90.8549 48.2646C90.3999 48.3527 89.9265 48.3967 89.4348 48.3967C88.7449 48.3967 88.1248 48.2829 87.5744 48.0554C87.0239 47.8206 86.5873 47.4206 86.2644 46.8555C85.9414 46.2904 85.78 45.5088 85.78 44.5107V37.9606H84.1177V36.8047L85.9011 35.891L86.7487 33.282H88.378V35.9901H91.8677V37.9606H88.378V44.4777C88.378 45.0941 88.5321 45.5528 88.8404 45.8537C89.1486 46.1546 89.5559 46.3051 90.0623 46.3051ZM97.0307 35.9901V48.1765H94.4437V35.9901H97.0307ZM95.7537 31.3225C96.15 31.3225 96.4913 31.4289 96.7775 31.6417C97.0711 31.8545 97.2178 32.2215 97.2178 32.7426C97.2178 33.2563 97.0711 33.6232 96.7775 33.8434C96.4913 34.0562 96.15 34.1627 95.7537 34.1627C95.3427 34.1627 94.9941 34.0562 94.7079 33.8434C94.429 33.6232 94.2896 33.2563 94.2896 32.7426C94.2896 32.2215 94.429 31.8545 94.7079 31.6417C94.9941 31.4289 95.3427 31.3225 95.7537 31.3225ZM106.828 37.9606H103.867V48.1765H101.28V37.9606H99.2874V36.7166L101.28 35.9571V35.1094C101.28 34.0746 101.441 33.2526 101.764 32.6435C102.095 32.0344 102.564 31.5977 103.173 31.3335C103.79 31.0619 104.524 30.9262 105.375 30.9262C105.933 30.9262 106.443 30.9739 106.905 31.0693C107.368 31.1573 107.757 31.2601 108.072 31.3775L107.401 33.337C107.151 33.2563 106.872 33.1829 106.564 33.1169C106.256 33.0435 105.926 33.0068 105.573 33.0068C104.986 33.0068 104.553 33.1902 104.274 33.5572C104.003 33.9241 103.867 34.4599 103.867 35.1644V35.9901H106.828V37.9606ZM111.485 35.9901V48.1765H108.898V35.9901H111.485ZM110.208 31.3225C110.604 31.3225 110.945 31.4289 111.232 31.6417C111.525 31.8545 111.672 32.2215 111.672 32.7426C111.672 33.2563 111.525 33.6232 111.232 33.8434C110.945 34.0562 110.604 34.1627 110.208 34.1627C109.797 34.1627 109.448 34.0562 109.162 33.8434C108.883 33.6232 108.744 33.2563 108.744 32.7426C108.744 32.2215 108.883 31.8545 109.162 31.6417C109.448 31.4289 109.797 31.3225 110.208 31.3225ZM120.094 48.3967C118.941 48.3967 117.943 48.1728 117.099 47.7252C116.255 47.2775 115.606 46.5913 115.151 45.6666C114.696 44.7419 114.468 43.5676 114.468 42.1438C114.468 40.6614 114.718 39.4504 115.217 38.511C115.716 37.5716 116.406 36.8781 117.286 36.4304C118.174 35.9827 119.191 35.7589 120.336 35.7589C121.062 35.7589 121.719 35.8323 122.306 35.9791C122.901 36.1185 123.403 36.291 123.814 36.4965L123.044 38.5661C122.596 38.3826 122.137 38.2285 121.668 38.1037C121.198 37.979 120.747 37.9166 120.314 37.9166C119.602 37.9166 119.007 38.0744 118.53 38.3899C118.061 38.7055 117.708 39.1752 117.474 39.799C117.246 40.4228 117.132 41.1971 117.132 42.1218C117.132 43.0172 117.25 43.7731 117.485 44.3896C117.719 44.9987 118.068 45.4611 118.53 45.7767C118.993 46.0849 119.561 46.239 120.237 46.239C120.905 46.239 121.503 46.1583 122.031 45.9968C122.559 45.8354 123.059 45.6262 123.528 45.3693V47.6151C123.066 47.8793 122.57 48.0738 122.042 48.1985C121.514 48.3306 120.864 48.3967 120.094 48.3967ZM128.977 35.9901V48.1765H126.39V35.9901H128.977ZM127.7 31.3225C128.097 31.3225 128.438 31.4289 128.724 31.6417C129.018 31.8545 129.165 32.2215 129.165 32.7426C129.165 33.2563 129.018 33.6232 128.724 33.8434C128.438 34.0562 128.097 34.1627 127.7 34.1627C127.289 34.1627 126.941 34.0562 126.655 33.8434C126.376 33.6232 126.236 33.2563 126.236 32.7426C126.236 32.2215 126.376 31.8545 126.655 31.6417C126.941 31.4289 127.289 31.3225 127.7 31.3225ZM137.465 35.7589C139.006 35.7589 140.169 36.1002 140.955 36.7827C141.747 37.4652 142.144 38.5294 142.144 39.9752V48.1765H140.305L139.81 46.4482H139.722C139.377 46.8885 139.021 47.2518 138.654 47.538C138.287 47.8242 137.861 48.0371 137.377 48.1765C136.9 48.3233 136.316 48.3967 135.627 48.3967C134.9 48.3967 134.251 48.2646 133.678 48.0004C133.106 47.7288 132.654 47.3178 132.324 46.7674C131.994 46.217 131.829 45.5198 131.829 44.6758C131.829 43.4208 132.295 42.4778 133.227 41.8466C134.166 41.2155 135.583 40.8669 137.476 40.8008L139.59 40.7237V40.0852C139.59 39.2413 139.391 38.6395 138.995 38.2799C138.606 37.9202 138.056 37.7404 137.344 37.7404C136.735 37.7404 136.144 37.8285 135.572 38.0046C134.999 38.1808 134.441 38.3973 133.898 38.6541L133.062 36.8267C133.656 36.5111 134.331 36.2543 135.087 36.0561C135.85 35.858 136.643 35.7589 137.465 35.7589ZM139.579 42.353L138.004 42.408C136.713 42.4521 135.806 42.6723 135.285 43.0686C134.764 43.4649 134.504 44.008 134.504 44.6978C134.504 45.2996 134.684 45.74 135.043 46.0188C135.403 46.2904 135.876 46.4262 136.463 46.4262C137.359 46.4262 138.1 46.173 138.687 45.6666C139.281 45.1528 139.579 44.4006 139.579 43.4098V42.353ZM148.363 48.1765H145.765V31.0473H148.363V48.1765ZM158.183 48.1765V32.0821H160.825V48.1765H158.183ZM171.162 35.7589C172.534 35.7589 173.602 36.1148 174.366 36.8267C175.136 37.5313 175.521 38.6652 175.521 40.2284V48.1765H172.934V40.7127C172.934 39.766 172.74 39.0578 172.351 38.5881C171.962 38.1111 171.36 37.8725 170.546 37.8725C169.364 37.8725 168.542 38.2358 168.08 38.9624C167.625 39.6889 167.397 40.7421 167.397 42.1218V48.1765H164.81V35.9901H166.825L167.188 37.6414H167.331C167.595 37.2157 167.922 36.8671 168.311 36.5955C168.707 36.3167 169.148 36.1075 169.632 35.9681C170.124 35.8286 170.634 35.7589 171.162 35.7589ZM183.679 46.3051C184.016 46.3051 184.35 46.2757 184.681 46.217C185.011 46.1509 185.312 46.0739 185.583 45.9858V47.9453C185.297 48.0701 184.926 48.1765 184.471 48.2646C184.016 48.3527 183.543 48.3967 183.051 48.3967C182.361 48.3967 181.741 48.2829 181.191 48.0554C180.64 47.8206 180.204 47.4206 179.881 46.8555C179.558 46.2904 179.396 45.5088 179.396 44.5107V37.9606H177.734V36.8047L179.518 35.891L180.365 33.282H181.994V35.9901H185.484V37.9606H181.994V44.4777C181.994 45.0941 182.149 45.5528 182.457 45.8537C182.765 46.1546 183.172 46.3051 183.679 46.3051ZM192.915 35.7589C194.001 35.7589 194.933 35.9827 195.711 36.4304C196.489 36.8781 197.087 37.5129 197.505 38.3349C197.924 39.1569 198.133 40.1403 198.133 41.2852V42.6723H189.998C190.027 43.8538 190.343 44.7639 190.944 45.4024C191.554 46.0409 192.405 46.3601 193.498 46.3601C194.276 46.3601 194.974 46.2867 195.59 46.1399C196.214 45.9858 196.856 45.762 197.516 45.4684V47.571C196.907 47.8573 196.287 48.0664 195.656 48.1985C195.025 48.3306 194.269 48.3967 193.388 48.3967C192.192 48.3967 191.139 48.1655 190.229 47.7031C189.326 47.2335 188.618 46.5362 188.104 45.6115C187.598 44.6868 187.345 43.5383 187.345 42.1659C187.345 40.8008 187.576 39.6412 188.038 38.6872C188.501 37.7331 189.15 37.0065 189.987 36.5075C190.823 36.0084 191.799 35.7589 192.915 35.7589ZM192.915 37.7074C192.1 37.7074 191.44 37.9716 190.933 38.5C190.434 39.0284 190.141 39.8027 190.053 40.8228H195.601C195.594 40.2137 195.491 39.6743 195.293 39.2046C195.102 38.7349 194.808 38.3679 194.412 38.1037C194.023 37.8395 193.524 37.7074 192.915 37.7074ZM203.648 48.1765H201.05V31.0473H203.648V48.1765ZM209.945 48.1765H207.347V31.0473H209.945V48.1765ZM216.231 35.9901V48.1765H213.644V35.9901H216.231ZM214.954 31.3225C215.35 31.3225 215.692 31.4289 215.978 31.6417C216.271 31.8545 216.418 32.2215 216.418 32.7426C216.418 33.2563 216.271 33.6232 215.978 33.8434C215.692 34.0562 215.35 34.1627 214.954 34.1627C214.543 34.1627 214.194 34.0562 213.908 33.8434C213.629 33.6232 213.49 33.2563 213.49 32.7426C213.49 32.2215 213.629 31.8545 213.908 31.6417C214.194 31.4289 214.543 31.3225 214.954 31.3225ZM223.42 53.5927C221.768 53.5927 220.502 53.2955 219.622 52.701C218.741 52.1066 218.301 51.2736 218.301 50.2021C218.301 49.4535 218.535 48.8187 219.005 48.2976C219.475 47.7839 220.146 47.4279 221.02 47.2298C220.689 47.083 220.403 46.8555 220.161 46.5473C219.926 46.2317 219.809 45.8831 219.809 45.5014C219.809 45.0464 219.937 44.6575 220.194 44.3345C220.451 44.0116 220.836 43.6997 221.35 43.3988C220.711 43.1273 220.198 42.6869 219.809 42.0778C219.427 41.4613 219.236 40.7384 219.236 39.9091C219.236 39.0284 219.423 38.2799 219.798 37.6634C220.172 37.0396 220.719 36.5662 221.438 36.2433C222.157 35.913 223.027 35.7479 224.047 35.7479C224.267 35.7479 224.506 35.7626 224.763 35.7919C225.027 35.8139 225.269 35.8433 225.489 35.88C225.717 35.9094 225.889 35.9424 226.007 35.9791H230.223V37.4212L228.153 37.8065C228.351 38.0854 228.509 38.4046 228.627 38.7642C228.744 39.1165 228.803 39.5018 228.803 39.9201C228.803 41.1824 228.366 42.1769 227.493 42.9034C226.627 43.6227 225.43 43.9823 223.904 43.9823C223.537 43.9676 223.181 43.9382 222.836 43.8942C222.572 44.0557 222.37 44.2355 222.231 44.4336C222.091 44.6244 222.021 44.8409 222.021 45.0831C222.021 45.2813 222.091 45.4427 222.231 45.5675C222.37 45.6849 222.576 45.773 222.847 45.8317C223.126 45.8904 223.464 45.9198 223.86 45.9198H225.963C227.298 45.9198 228.318 46.2023 229.023 46.7674C229.727 47.3325 230.08 48.1618 230.08 49.2553C230.08 50.6424 229.507 51.7102 228.362 52.4588C227.217 53.2147 225.57 53.5927 223.42 53.5927ZM223.519 51.7763C224.421 51.7763 225.181 51.6882 225.797 51.5121C226.414 51.336 226.88 51.0828 227.195 50.7525C227.511 50.4296 227.669 50.0443 227.669 49.5966C227.669 49.2003 227.57 48.8957 227.372 48.6829C227.173 48.4701 226.876 48.3233 226.48 48.2426C226.084 48.1618 225.592 48.1215 225.005 48.1215H223.089C222.612 48.1215 222.19 48.1949 221.823 48.3416C221.456 48.4958 221.17 48.7159 220.965 49.0022C220.766 49.2884 220.667 49.6333 220.667 50.037C220.667 50.5947 220.913 51.0241 221.405 51.325C221.904 51.6259 222.609 51.7763 223.519 51.7763ZM224.025 42.287C224.781 42.287 225.342 42.0815 225.709 41.6705C226.076 41.2522 226.26 40.665 226.26 39.9091C226.26 39.0871 226.069 38.4707 225.687 38.0597C225.313 37.6487 224.755 37.4432 224.014 37.4432C223.287 37.4432 222.733 37.6524 222.352 38.0707C221.977 38.489 221.79 39.1092 221.79 39.9311C221.79 40.6724 221.977 41.2522 222.352 41.6705C222.733 42.0815 223.291 42.287 224.025 42.287ZM237.301 35.7589C238.387 35.7589 239.32 35.9827 240.097 36.4304C240.875 36.8781 241.474 37.5129 241.892 38.3349C242.31 39.1569 242.519 40.1403 242.519 41.2852V42.6723H234.384C234.413 43.8538 234.729 44.7639 235.331 45.4024C235.94 46.0409 236.791 46.3601 237.885 46.3601C238.663 46.3601 239.36 46.2867 239.976 46.1399C240.6 45.9858 241.242 45.762 241.903 45.4684V47.571C241.294 47.8573 240.674 48.0664 240.042 48.1985C239.411 48.3306 238.655 48.3967 237.775 48.3967C236.578 48.3967 235.525 48.1655 234.615 47.7031C233.713 47.2335 233.004 46.5362 232.491 45.6115C231.984 44.6868 231.731 43.5383 231.731 42.1659C231.731 40.8008 231.962 39.6412 232.425 38.6872C232.887 37.7331 233.536 37.0065 234.373 36.5075C235.21 36.0084 236.186 35.7589 237.301 35.7589ZM237.301 37.7074C236.487 37.7074 235.826 37.9716 235.32 38.5C234.821 39.0284 234.527 39.8027 234.439 40.8228H239.987C239.98 40.2137 239.877 39.6743 239.679 39.2046C239.488 38.7349 239.195 38.3679 238.798 38.1037C238.409 37.8395 237.91 37.7074 237.301 37.7074ZM251.789 35.7589C253.161 35.7589 254.229 36.1148 254.992 36.8267C255.763 37.5313 256.148 38.6652 256.148 40.2284V48.1765H253.561V40.7127C253.561 39.766 253.366 39.0578 252.977 38.5881C252.588 38.1111 251.987 37.8725 251.172 37.8725C249.99 37.8725 249.168 38.2358 248.706 38.9624C248.251 39.6889 248.024 40.7421 248.024 42.1218V48.1765H245.437V35.9901H247.451L247.814 37.6414H247.958C248.222 37.2157 248.548 36.8671 248.937 36.5955C249.334 36.3167 249.774 36.1075 250.258 35.9681C250.75 35.8286 251.26 35.7589 251.789 35.7589ZM264.679 48.3967C263.527 48.3967 262.529 48.1728 261.685 47.7252C260.841 47.2775 260.192 46.5913 259.737 45.6666C259.282 44.7419 259.054 43.5676 259.054 42.1438C259.054 40.6614 259.304 39.4504 259.803 38.511C260.302 37.5716 260.992 36.8781 261.872 36.4304C262.76 35.9827 263.777 35.7589 264.922 35.7589C265.648 35.7589 266.305 35.8323 266.892 35.9791C267.487 36.1185 267.989 36.291 268.4 36.4965L267.63 38.5661C267.182 38.3826 266.723 38.2285 266.254 38.1037C265.784 37.979 265.333 37.9166 264.9 37.9166C264.188 37.9166 263.593 38.0744 263.116 38.3899C262.647 38.7055 262.294 39.1752 262.059 39.799C261.832 40.4228 261.718 41.1971 261.718 42.1218C261.718 43.0172 261.836 43.7731 262.07 44.3896C262.305 44.9987 262.654 45.4611 263.116 45.7767C263.579 46.0849 264.147 46.239 264.823 46.239C265.49 46.239 266.089 46.1583 266.617 45.9968C267.145 45.8354 267.644 45.6262 268.114 45.3693V47.6151C267.652 47.8793 267.156 48.0738 266.628 48.1985C266.1 48.3306 265.45 48.3967 264.679 48.3967ZM275.831 35.7589C276.917 35.7589 277.849 35.9827 278.627 36.4304C279.405 36.8781 280.003 37.5129 280.422 38.3349C280.84 39.1569 281.049 40.1403 281.049 41.2852V42.6723H272.914C272.943 43.8538 273.259 44.7639 273.861 45.4024C274.47 46.0409 275.321 46.3601 276.415 46.3601C277.193 46.3601 277.89 46.2867 278.506 46.1399C279.13 45.9858 279.772 45.762 280.433 45.4684V47.571C279.824 47.8573 279.203 48.0664 278.572 48.1985C277.941 48.3306 277.185 48.3967 276.304 48.3967C275.108 48.3967 274.055 48.1655 273.145 47.7031C272.242 47.2335 271.534 46.5362 271.02 45.6115C270.514 44.6868 270.261 43.5383 270.261 42.1659C270.261 40.8008 270.492 39.6412 270.954 38.6872C271.417 37.7331 272.066 37.0065 272.903 36.5075C273.739 36.0084 274.716 35.7589 275.831 35.7589ZM275.831 37.7074C275.016 37.7074 274.356 37.9716 273.85 38.5C273.351 39.0284 273.057 39.8027 272.969 40.8228H278.517C278.51 40.2137 278.407 39.6743 278.209 39.2046C278.018 38.7349 277.725 38.3679 277.328 38.1037C276.939 37.8395 276.44 37.7074 275.831 37.7074Z" fill="#3A68B8"/>
</svg>
