<svg width="177" height="17" viewBox="0 0 177 17" fill="none" xmlns="http://www.w3.org/2000/svg">
<g id="Group 83" opacity="0.6">
<path id="Vector" d="M9.56773 0.944336H7.3189C6.32485 0.944336 5.37152 1.32637 4.66863 2.00639C3.96573 2.6864 3.57085 3.60871 3.57085 4.5704V6.74604H1.32202V9.64689H3.57085V15.4486H6.56929V9.64689H8.81812L9.56773 6.74604H6.56929V4.5704C6.56929 4.37806 6.64826 4.1936 6.78884 4.0576C6.92942 3.92159 7.12009 3.84519 7.3189 3.84519H9.56773V0.944336Z" stroke="white" stroke-linecap="round" stroke-linejoin="round"/>
<g id="Group 81">
<path id="Vector_2" d="M45.7986 0.944336H38.3026C36.2326 0.944336 34.5545 2.56778 34.5545 4.5704V11.8225C34.5545 13.8251 36.2326 15.4486 38.3026 15.4486H45.7986C47.8686 15.4486 49.5467 13.8251 49.5467 11.8225V4.5704C49.5467 2.56778 47.8686 0.944336 45.7986 0.944336Z" stroke="white" stroke-linecap="round" stroke-linejoin="round"/>
<path id="Vector_3" d="M45.0488 7.73902C45.1413 8.34257 45.0347 8.95898 44.7443 9.50057C44.4538 10.0422 43.9942 10.4813 43.4309 10.7557C42.8675 11.03 42.2291 11.1255 41.6064 11.0285C40.9838 10.9316 40.4085 10.6472 39.9626 10.2157C39.5166 9.78429 39.2226 9.22779 39.1224 8.62538C39.0222 8.02298 39.1209 7.40534 39.4045 6.86033C39.688 6.31532 40.142 5.87068 40.7018 5.58966C41.2616 5.30864 41.8988 5.20555 42.5226 5.29505C43.159 5.38635 43.7481 5.67322 44.203 6.11331C44.6579 6.5534 44.9544 7.12337 45.0488 7.73902Z" stroke="white" stroke-linecap="round" stroke-linejoin="round"/>
<path id="Vector_4" d="M46.1734 4.20752H46.1809" stroke="white" stroke-linecap="round" stroke-linejoin="round"/>
</g>
<path id="Vector_5" d="M92.9149 0.952464C92.1148 1.49847 91.229 1.91607 90.2914 2.18919C89.7882 1.62944 89.1195 1.2327 88.3756 1.05264C87.6318 0.87257 86.8487 0.917865 86.1323 1.18239C85.4159 1.44692 84.8008 1.91792 84.3701 2.53169C83.9394 3.14546 83.714 3.87239 83.7243 4.61416V5.42248C82.256 5.45931 80.801 5.14426 79.4891 4.50539C78.1771 3.86652 77.0488 2.92366 76.2047 1.76078C76.2047 1.76078 72.8626 9.03567 80.3822 12.269C78.6615 13.399 76.6117 13.9656 74.5336 13.8856C82.0533 17.9272 91.2439 13.8856 91.2439 4.58991C91.2431 4.36475 91.2208 4.14015 91.1771 3.919C92.0298 3.10542 92.6315 2.07822 92.9149 0.952464V0.952464Z" stroke="white" stroke-linecap="round" stroke-linejoin="round"/>
<g id="Group 82">
<path id="Vector_6" d="M128.396 6.26221C129.589 6.26221 130.733 6.72064 131.577 7.53667C132.42 8.35269 132.894 9.45945 132.894 10.6135V15.69H129.896V10.6135C129.896 10.2288 129.738 9.85988 129.456 9.58788C129.175 9.31587 128.794 9.16306 128.396 9.16306C127.999 9.16306 127.617 9.31587 127.336 9.58788C127.055 9.85988 126.897 10.2288 126.897 10.6135V15.69H123.899V10.6135C123.899 9.45945 124.373 8.35269 125.216 7.53667C126.059 6.72064 127.203 6.26221 128.396 6.26221V6.26221Z" stroke="white" stroke-linecap="round" stroke-linejoin="round"/>
<path id="Vector_7" d="M120.9 6.98779H117.902V15.6903H120.9V6.98779Z" stroke="white" stroke-linecap="round" stroke-linejoin="round"/>
<path id="Vector_8" d="M119.401 4.81247C120.229 4.81247 120.9 4.16309 120.9 3.36205C120.9 2.561 120.229 1.91162 119.401 1.91162C118.573 1.91162 117.902 2.561 117.902 3.36205C117.902 4.16309 118.573 4.81247 119.401 4.81247Z" stroke="white" stroke-linecap="round" stroke-linejoin="round"/>
</g>
<g id="Group 80">
<path id="Vector_9" d="M175.495 4.7919C175.398 4.41645 175.2 4.07245 174.922 3.79465C174.643 3.51684 174.294 3.31507 173.909 3.2097C172.502 2.87744 166.876 2.87744 166.876 2.87744C166.876 2.87744 161.25 2.87744 159.844 3.24135C159.459 3.34671 159.11 3.54848 158.831 3.82629C158.553 4.1041 158.355 4.4481 158.258 4.82355C158 6.20446 157.874 7.6053 157.881 9.00846C157.872 10.4222 157.998 11.8337 158.258 13.225C158.365 13.5888 158.567 13.9197 158.845 14.1858C159.123 14.4519 159.467 14.6441 159.844 14.7439C161.25 15.1078 166.876 15.1078 166.876 15.1078C166.876 15.1078 172.502 15.1078 173.909 14.7439C174.294 14.6386 174.643 14.4368 174.922 14.159C175.2 13.8812 175.398 13.5372 175.495 13.1617C175.75 11.7912 175.876 10.4011 175.871 9.00846C175.88 7.59473 175.754 6.18321 175.495 4.7919V4.7919Z" stroke="white" stroke-linecap="round" stroke-linejoin="round"/>
<path id="Vector_10" d="M165.036 11.5957L169.738 9.00877L165.036 6.42188V11.5957Z" stroke="white" stroke-linecap="round" stroke-linejoin="round"/>
</g>
</g>
</svg>
