<svg width="15" height="14" viewBox="0 0 15 14" fill="none" xmlns="http://www.w3.org/2000/svg">
<g id="Group 71">
<path id="Vector" d="M8.81184 3.19017C9.41825 3.30464 9.97555 3.59156 10.4124 4.01422C10.8493 4.43688 11.1459 4.97605 11.2642 5.56272L8.81184 3.19017ZM8.81184 0.787598C10.0717 0.923005 11.2466 1.46883 12.1435 2.33546C13.0404 3.20209 13.6061 4.33801 13.7476 5.55671L8.81184 0.787598ZM13.1268 10.3499V12.1518C13.1275 12.3191 13.092 12.4846 13.0228 12.6379C12.9535 12.7912 12.8519 12.9288 12.7245 13.0419C12.5971 13.1549 12.4467 13.241 12.2829 13.2946C12.1191 13.3482 11.9455 13.3681 11.7733 13.3531C9.86284 13.1522 8.02771 12.5207 6.41536 11.5091C4.91528 10.5869 3.64347 9.35649 2.69026 7.90523C1.641 6.33827 0.988034 4.55423 0.784245 2.69765C0.76873 2.53155 0.789134 2.36414 0.844157 2.20609C0.89918 2.04804 0.987617 1.90281 1.10384 1.77963C1.22006 1.65646 1.36151 1.55805 1.5192 1.49066C1.67689 1.42328 1.84735 1.3884 2.01974 1.38824H3.88229C4.18359 1.38537 4.47569 1.4886 4.70415 1.67867C4.9326 1.86875 5.08182 2.13271 5.12399 2.42135C5.2026 2.99801 5.3484 3.56421 5.55858 4.10916C5.64212 4.32414 5.66019 4.55779 5.61068 4.78241C5.56116 5.00703 5.44613 5.21321 5.2792 5.37652L4.49072 6.13934C5.37454 7.64308 6.6615 8.88815 8.21582 9.7432L9.0043 8.98038C9.17311 8.81889 9.38622 8.7076 9.6184 8.65969C9.85058 8.61179 10.0921 8.62928 10.3143 8.71009C10.8776 8.91344 11.4628 9.05449 12.0589 9.13054C12.3605 9.17171 12.6359 9.31867 12.8328 9.54348C13.0297 9.7683 13.1343 10.0553 13.1268 10.3499Z" stroke="white" stroke-linecap="round" stroke-linejoin="round"/>
</g>
</svg>
